<?xml version="1.0" standalone="no"?><!DOCTYPE svg PUBLIC "-//W3C//DTD SVG 1.1//EN" "http://www.w3.org/Graphics/SVG/1.1/DTD/svg11.dtd"><svg t="1537362465890" class="icon" style="" viewBox="0 0 1024 1024" version="1.1" xmlns="http://www.w3.org/2000/svg" p-id="2091" xmlns:xlink="http://www.w3.org/1999/xlink" width="256" height="256"><defs><style type="text/css"></style></defs><path d="M513.1 122.2c247 0 447.2 174.4 447.2 408.7 0 234.2-200.2 377.8-447.2 377.8S65.9 765.1 65.9 530.9c0-234.2 200.3-408.7 447.2-408.7z" fill="#FF9E10" p-id="2092"></path><path d="M513.1 908.7c-208.5 0-383.1-102.6-432.7-275.4C136 742.7 262.6 818.2 409.1 816.1c195.8-2.7 352.9-143 350.8-313.3-2.1-170.3-162.7-306.2-358.5-303.4-106.9 1.5-202 44.2-266.2 110.1 79.2-114.4 218.7-187.3 378-187.3 247 0 447.2 174.4 447.2 408.7 0 234.2-200.3 377.8-447.3 377.8z" fill="#FF8500" p-id="2093"></path><path d="M513.1 847c185.7 0 385.5-98.9 385.5-316.1 0-194.6-169.4-347-385.5-347-216.2 0-385.5 152.4-385.5 347 0 217.2 199.9 316.1 385.5 316.1m0 61.7c-247 0-447.2-143.6-447.2-377.8 0-234.2 200.2-408.7 447.2-408.7s447.2 174.4 447.2 408.7c0.1 234.2-200.2 377.8-447.2 377.8z" fill="#3C3A50" p-id="2094"></path><path d="M317.5 640c12.4 11.7 13 31.2 1.3 43.6-11.7 12.4-31.2 13-43.6 1.3-17.5-16.5-32.3-35.6-43.7-56.9-8-15-2.4-33.7 12.7-41.7 15-8.1 33.7-2.4 41.7 12.6 8 15.1 18.7 28.9 31.6 41.1m-51.1-122.9c0 17-13.8 30.8-30.8 30.8s-30.8-13.8-30.8-30.8c0-95.3 50.2-175.2 126.2-221 14.6-8.8 33.5-4.1 42.3 10.5 8.8 14.6 4.1 33.5-10.5 42.3-61.3 37-96.4 98.3-96.4 168.2" fill="#FFFFFF" p-id="2095"></path><path d="M505.4 276.4c-38.3 0-69.4-17.2-69.4-38.6s31.1-38.6 69.4-38.6c38.3 0 69.4 17.2 69.4 38.6s-31.1 38.6-69.4 38.6z" fill="#3C3A50" p-id="2096"></path></svg>